<?xml version="1.0" encoding="UTF-8"?>
<svg version="1.1" xmlns="http://www.w3.org/2000/svg" width="512" height="512">
<path d="M0 0 C2.08915525 1.15603116 4.2018735 2.25949118 6.31982422 3.36181641 C16.9711069 8.98443082 26.56379577 15.48462319 35.91748047 23.06103516 C36.52575684 23.55361816 37.1340332 24.04620117 37.76074219 24.55371094 C81.91681478 60.67707289 110.18269444 112.24379697 115.96777344 169.17993164 C120.80804825 223.51810057 106.52005643 279.50588807 72.01123047 322.36181641 C70.08453035 324.84567794 68.50655689 327.35524151 66.91748047 330.06103516 C70.91872815 334.31152203 74.95328687 338.52645623 79.02075195 342.71362305 C80.39636104 344.13918397 81.76282391 345.57363493 83.11938477 347.01733398 C93.03382036 358.02175855 93.03382036 358.02175855 106.75073242 362.3527832 C117.24622538 364.70012921 125.18351709 374.87070182 132.49169922 382.20166016 C133.78689538 383.4922859 135.08245977 384.78254219 136.37837219 386.07244873 C139.08208123 388.76726326 141.78009635 391.46762346 144.47436523 394.171875 C147.90863176 397.61763111 151.35850192 401.04727029 154.81306744 404.47266006 C157.48919682 407.13034754 160.15585053 409.79738946 162.81992531 412.46715546 C164.08737186 413.73475422 165.35787905 414.99930111 166.63162804 416.26056671 C184.84740532 434.32281709 184.84740532 434.32281709 185.22998047 446.68603516 C185.12082268 454.09784933 182.7772466 460.40919044 177.79248047 465.93603516 C171.77816632 471.36045922 164.48379378 473.84804819 156.41748047 473.43212891 C141.5067456 471.2188167 131.46579089 457.77856847 121.30419922 447.65087891 C120.72385233 447.07335939 120.14350544 446.49583988 119.54557228 445.90081978 C116.48319514 442.8532971 113.4235967 439.80301856 110.36645508 436.75024414 C107.22856037 433.61786077 104.08146668 430.49489056 100.9321928 427.37395382 C98.48977933 424.95022707 96.05416089 422.51975677 93.62030983 420.08743477 C92.46308115 418.93321183 91.30337696 417.78146485 90.14105797 416.63236809 C74.90975856 401.56226163 74.90975856 401.56226163 74.05419922 392.54541016 C71.90797253 382.94553908 63.60098769 376.80879668 56.72998047 370.31103516 C55.29627294 368.92254119 53.86461106 367.53193168 52.43505859 366.13916016 C48.95233378 362.75490467 45.44308185 359.40057638 41.91748047 356.06103516 C37.60798707 357.675398 34.6264405 359.70985773 31.04248047 362.62353516 C24.04922828 368.1513339 16.6736273 372.69029497 8.91748047 377.06103516 C8.26295898 377.43615234 7.6084375 377.81126953 6.93408203 378.19775391 C-22.35621096 394.88624364 -56.39391445 404.20956492 -90.08251953 405.06103516 C-91.15244141 405.10099609 -92.22236328 405.14095703 -93.32470703 405.18212891 C-126.5966363 405.8603337 -160.20804311 398.69356269 -190.08251953 384.06103516 C-191.25645264 383.48844971 -191.25645264 383.48844971 -192.45410156 382.90429688 C-242.94904432 357.98882745 -281.8193877 313.26092185 -300.08251953 260.06103516 C-316.79110632 209.72654171 -314.94680484 154.87766437 -294.08251953 106.06103516 C-293.76557129 105.31418457 -293.44862305 104.56733398 -293.12207031 103.79785156 C-286.18873407 87.70632934 -277.06245783 72.71075297 -266.08251953 59.06103516 C-265.28845703 58.06330078 -264.49439453 57.06556641 -263.67626953 56.03759766 C-227.15594057 11.05447234 -174.86682575 -16.32635935 -117.36767578 -22.43896484 C-77.82599583 -25.98429621 -34.95300478 -19.51581656 0 0 Z " fill="#AFD2EF" transform="translate(319.08251953125,30.93896484375)"/>
<path d="M0 0 C2.08915525 1.15603116 4.2018735 2.25949118 6.31982422 3.36181641 C16.9711069 8.98443082 26.56379577 15.48462319 35.91748047 23.06103516 C36.52575684 23.55361816 37.1340332 24.04620117 37.76074219 24.55371094 C81.91681478 60.67707289 110.18269444 112.24379697 115.96777344 169.17993164 C120.80804825 223.51810057 106.52005643 279.50588807 72.01123047 322.36181641 C70.08453035 324.84567794 68.50655689 327.35524151 66.91748047 330.06103516 C70.91872815 334.31152203 74.95328687 338.52645623 79.02075195 342.71362305 C80.39636104 344.13918397 81.76282391 345.57363493 83.11938477 347.01733398 C93.03382036 358.02175855 93.03382036 358.02175855 106.75073242 362.3527832 C117.24622538 364.70012921 125.18351709 374.87070182 132.49169922 382.20166016 C133.78689538 383.4922859 135.08245977 384.78254219 136.37837219 386.07244873 C139.08208123 388.76726326 141.78009635 391.46762346 144.47436523 394.171875 C147.90863176 397.61763111 151.35850192 401.04727029 154.81306744 404.47266006 C157.48919682 407.13034754 160.15585053 409.79738946 162.81992531 412.46715546 C164.08737186 413.73475422 165.35787905 414.99930111 166.63162804 416.26056671 C184.84740532 434.32281709 184.84740532 434.32281709 185.22998047 446.68603516 C185.12082268 454.09784933 182.7772466 460.40919044 177.79248047 465.93603516 C171.77816632 471.36045922 164.48379378 473.84804819 156.41748047 473.43212891 C141.5067456 471.2188167 131.46579089 457.77856847 121.30419922 447.65087891 C120.72385233 447.07335939 120.14350544 446.49583988 119.54557228 445.90081978 C116.48319514 442.8532971 113.4235967 439.80301856 110.36645508 436.75024414 C107.22856037 433.61786077 104.08146668 430.49489056 100.9321928 427.37395382 C98.48977933 424.95022707 96.05416089 422.51975677 93.62030983 420.08743477 C92.46308115 418.93321183 91.30337696 417.78146485 90.14105797 416.63236809 C74.90975856 401.56226163 74.90975856 401.56226163 74.05419922 392.54541016 C71.90797253 382.94553908 63.60098769 376.80879668 56.72998047 370.31103516 C55.29627294 368.92254119 53.86461106 367.53193168 52.43505859 366.13916016 C48.95233378 362.75490467 45.44308185 359.40057638 41.91748047 356.06103516 C37.60798707 357.675398 34.6264405 359.70985773 31.04248047 362.62353516 C24.04922828 368.1513339 16.6736273 372.69029497 8.91748047 377.06103516 C8.26295898 377.43615234 7.6084375 377.81126953 6.93408203 378.19775391 C-22.35621096 394.88624364 -56.39391445 404.20956492 -90.08251953 405.06103516 C-91.15244141 405.10099609 -92.22236328 405.14095703 -93.32470703 405.18212891 C-126.5966363 405.8603337 -160.20804311 398.69356269 -190.08251953 384.06103516 C-191.25645264 383.48844971 -191.25645264 383.48844971 -192.45410156 382.90429688 C-242.94904432 357.98882745 -281.8193877 313.26092185 -300.08251953 260.06103516 C-316.79110632 209.72654171 -314.94680484 154.87766437 -294.08251953 106.06103516 C-293.76557129 105.31418457 -293.44862305 104.56733398 -293.12207031 103.79785156 C-286.18873407 87.70632934 -277.06245783 72.71075297 -266.08251953 59.06103516 C-265.28845703 58.06330078 -264.49439453 57.06556641 -263.67626953 56.03759766 C-227.15594057 11.05447234 -174.86682575 -16.32635935 -117.36767578 -22.43896484 C-77.82599583 -25.98429621 -34.95300478 -19.51581656 0 0 Z M-175.08251953 29.06103516 C-176.01523682 29.5130127 -176.01523682 29.5130127 -176.96679688 29.97412109 C-192.8898419 37.8010535 -207.04959634 48.06542626 -220.08251953 60.06103516 C-220.63004883 60.56328613 -221.17757812 61.06553711 -221.74169922 61.58300781 C-252.64089854 90.29083958 -274.51707335 133.94479082 -276.30737305 176.38452148 C-276.44698192 181.08917459 -276.47067273 185.79208668 -276.45751953 190.49853516 C-276.4559787 191.33518707 -276.45443787 192.17183899 -276.45285034 193.03384399 C-276.23458081 242.95571479 -255.22558621 286.825868 -220.35595703 321.79541016 C-184.68310101 355.79763656 -138.07913528 371.23674255 -89.37158203 370.34228516 C-72.1515669 369.80345809 -56.35232314 366.61589617 -40.08251953 361.06103516 C-39.39528809 360.83577148 -38.70805664 360.61050781 -38 360.37841797 C-14.25797015 352.55985141 6.86845244 339.21210159 24.91748047 322.06103516 C26.32819891 320.84576261 27.74441766 319.63682911 29.16748047 318.43603516 C33.15536102 314.94865783 36.57226661 311.16339618 39.91748047 307.06103516 C40.66771484 306.14837891 41.41794922 305.23572266 42.19091797 304.29541016 C63.56288216 277.46247089 76.11116496 246.90323117 80.91748047 213.06103516 C81.11083984 211.82482422 81.30419922 210.58861328 81.50341797 209.31494141 C87.03159869 163.06171684 72.19959904 116.38814848 43.85498047 79.88891602 C21.84385218 52.22775995 -5.94883909 33.12297995 -39.08251953 21.06103516 C-40.0821875 20.68422607 -40.0821875 20.68422607 -41.10205078 20.29980469 C-83.55528358 4.46773728 -134.86425242 9.44591962 -175.08251953 29.06103516 Z " fill="#95A5A5" transform="translate(319.08251953125,30.93896484375)"/>
<path d="M0 0 C7.88171845 6.55096097 15.09552441 13.90199909 22.359375 21.12109375 C22.92744118 21.6850844 23.49550735 22.24907505 24.08078766 22.83015633 C27.07971656 25.80842053 30.07549841 28.78981008 33.06884766 31.77368164 C36.13544019 34.82916739 39.21355279 37.87277399 42.29430771 40.91396999 C44.68781878 43.28120712 47.07227786 45.65741115 49.4544754 48.03602791 C50.58486613 49.16159156 51.71859238 50.28381691 52.85588837 51.40240288 C69.92835312 68.21099042 69.92835312 68.21099042 70.3125 80.625 C70.20334221 88.03681417 67.85976613 94.34815528 62.875 99.875 C56.86068585 105.29942406 49.56631331 107.78701303 41.5 107.37109375 C26.58926513 105.15778154 16.54831043 91.71753331 6.38671875 81.58984375 C5.80637186 81.01232424 5.22602497 80.43480473 4.62809181 79.83978462 C1.56571468 76.79226194 -1.49388377 73.74198341 -4.55102539 70.68920898 C-7.6889201 67.55682562 -10.83601379 64.4338554 -13.98528767 61.31291866 C-16.42770114 58.88919191 -18.86331958 56.45872161 -21.29717064 54.02639961 C-22.45439931 52.87217667 -23.61410351 51.72042969 -24.7764225 50.57133293 C-41.69671163 33.83011135 -41.69671163 33.83011135 -42.06640625 21.84765625 C-41.61598514 14.08130433 -38.40503774 6.82181362 -32.625 1.5625 C-22.5708364 -6.17483459 -10.62145309 -6.98260002 0 0 Z " fill="#A65947" transform="translate(434,397)"/>
<path d="M0 0 C0.78222307 -0.00367669 1.56444615 -0.00735338 2.37037295 -0.01114148 C5.00584823 -0.02220278 7.64128412 -0.02602628 10.27677917 -0.02983093 C12.16056443 -0.03609369 14.04434845 -0.04274032 15.9281311 -0.04974365 C21.05627971 -0.06716978 26.18441899 -0.07770961 31.31258988 -0.08594918 C34.51442201 -0.09109547 37.71625122 -0.09717134 40.91808128 -0.10346031 C50.92991581 -0.1225161 60.94174294 -0.13674693 70.95359212 -0.14507228 C82.52180208 -0.15484991 94.08982097 -0.18118156 105.65796357 -0.22157317 C114.59219237 -0.25170088 123.52636628 -0.26653794 132.4606449 -0.26985329 C137.80016178 -0.27220743 143.13947462 -0.28121514 148.47893715 -0.30631447 C153.50140635 -0.32954196 158.52353638 -0.33384989 163.5460453 -0.32355309 C165.39033636 -0.32305633 167.23464382 -0.32941775 169.07888412 -0.34310913 C171.59539782 -0.36074737 174.11068367 -0.35376236 176.62719727 -0.34057617 C177.7238977 -0.35703004 177.7238977 -0.35703004 178.84275371 -0.37381631 C183.66527336 -0.31273962 186.11928377 0.72261626 189.5040741 4.14717102 C190.93069628 7.00041539 190.81441277 8.98171651 190.5040741 12.14717102 C188.97798157 14.80712795 188.97798157 14.80712795 186.5040741 17.14717102 C183.67343154 17.64777469 181.4390881 17.82012547 178.60905457 17.77536011 C177.80808287 17.78245449 177.00711117 17.78954888 176.1818676 17.79685825 C173.49451266 17.81447847 170.8085964 17.79631376 168.1212616 17.77827454 C166.19614502 17.78341183 164.27103314 17.79069167 162.34593201 17.79995728 C157.11448572 17.81850363 151.88354776 17.80551221 146.6521225 17.78586698 C141.18203112 17.7695059 135.71197259 17.77828983 130.24186707 17.78338623 C121.05509807 17.78791003 111.86853249 17.77201955 102.68180847 17.74409485 C92.05485044 17.71204173 81.42825934 17.71205779 70.80127525 17.72930962 C60.58597072 17.7451635 50.37080094 17.73844846 40.15550232 17.7213726 C35.80467653 17.71449305 31.45395846 17.71554384 27.10313416 17.72291756 C21.98126421 17.73056856 16.85981275 17.71849294 11.73801422 17.69106865 C9.8562367 17.68417129 7.97442019 17.68410126 6.09264374 17.69128418 C3.52765717 17.69994808 0.96397121 17.68407574 -1.60090637 17.66183472 C-2.34915239 17.67007548 -3.09739841 17.67831625 -3.86831856 17.68680674 C-7.34356524 17.63102201 -9.17186515 17.39838184 -11.9561615 15.24000454 C-14.08729224 12.34339137 -14.06319474 10.53653133 -13.8943634 7.04951477 C-13.28697013 4.14950963 -11.83092798 2.86408431 -9.4959259 1.14717102 C-6.46584798 -0.36786794 -3.32425772 -0.00083064 0 0 Z " fill="#90BAE1" transform="translate(133.4959259033203,101.85282897949219)"/>
<path d="M0 0 C1.66974129 -0.0129007 1.66974129 -0.0129007 3.37321472 -0.02606201 C5.21376183 -0.03245193 5.21376183 -0.03245193 7.0914917 -0.03897095 C8.37937088 -0.04714844 9.66725006 -0.05532593 10.99415588 -0.06375122 C15.27234808 -0.0899772 19.55055008 -0.10528064 23.82879639 -0.11953735 C25.30153154 -0.12489703 26.77426663 -0.13027454 28.24700165 -0.13566971 C34.37372616 -0.15730038 40.50044804 -0.17603658 46.62720108 -0.1872921 C55.40703858 -0.2035276 64.18643324 -0.23669291 72.96610379 -0.29369295 C79.13943527 -0.33240472 85.31264838 -0.35192629 91.48609805 -0.35721266 C95.17305454 -0.36086486 98.85953879 -0.3728707 102.54636383 -0.4053154 C106.66193424 -0.44101334 110.77655441 -0.43702212 114.89227295 -0.42959595 C116.11120743 -0.44600128 117.33014191 -0.46240662 118.58601379 -0.47930908 C127.79635194 -0.41117204 127.79635194 -0.41117204 131.51135254 2.47161865 C133.75067139 5.15390015 133.75067139 5.15390015 134.43817139 8.65390015 C133.77607212 12.0245873 133.14363616 13.7811574 130.62986946 16.12174797 C126.22406814 18.54164052 120.73808313 17.83112824 115.85394287 17.78500366 C114.54290588 17.79215897 113.2318689 17.79931427 111.88110352 17.8066864 C108.29214416 17.825183 104.70392876 17.81227447 101.11500049 17.7925961 C97.35724205 17.77619687 93.59953026 17.7850241 89.8417511 17.79011536 C83.53270598 17.79463436 77.22395754 17.77877735 70.91497803 17.75082397 C63.62175774 17.71875879 56.32907207 17.71879363 49.03581375 17.73603874 C42.01716055 17.75190286 34.99870329 17.745172 27.98005867 17.72810173 C24.99405766 17.72123067 22.00821369 17.72226411 19.02221489 17.72964668 C14.85384289 17.73873108 10.68629687 17.71477629 6.51800537 17.68734741 C5.277892 17.69387329 4.03777863 17.70039917 2.76008606 17.7071228 C1.6259024 17.69439835 0.49171875 17.68167389 -0.67683411 17.66856384 C-1.66218926 17.66575692 -2.64754442 17.66295 -3.66275883 17.66005802 C-7.002178 17.00657737 -8.17038149 15.80097755 -10.24932861 13.15390015 C-11.24932861 9.71640015 -11.24932861 9.71640015 -11.24932861 6.15390015 C-8.01485395 1.02335413 -5.86015959 0.0336246 0 0 Z " fill="#90BAE1" transform="translate(190.24932861328125,323.8460998535156)"/>
<path d="M0 0 C3.27155869 2.36665948 4.70646942 3.89926032 5.75 7.8125 C4.01061869 15.20487058 -3.94568885 21.04603666 -9.28125 26.203125 C-10.63078605 27.52545232 -11.97972814 28.84838606 -13.328125 30.171875 C-15.42720801 32.2274332 -17.52981574 34.2788101 -19.64257812 36.3203125 C-21.70017139 38.31165391 -23.7417731 40.31825605 -25.78125 42.328125 C-26.74037292 43.2438327 -26.74037292 43.2438327 -27.71887207 44.17803955 C-29.68077731 46.06910545 -29.68077731 46.06910545 -32 49 C-31.75846675 52.51604501 -30.13488259 54.22821153 -27.68945312 56.63525391 C-26.99203003 57.32922272 -26.29460693 58.02319153 -25.5760498 58.7381897 C-24.81876587 59.47685272 -24.06148193 60.21551575 -23.28125 60.9765625 C-22.12163757 62.12625015 -22.12163757 62.12625015 -20.93859863 63.29916382 C-18.46604563 65.74829139 -15.98356524 68.18704441 -13.5 70.625 C-11.0181846 73.07179268 -8.53850003 75.52069184 -6.06140137 77.97225952 C-4.51872061 79.49791862 -2.97297532 81.0204862 -1.4239502 82.53970337 C-0.7265271 83.22736786 -0.029104 83.91503235 0.68945312 84.62353516 C1.30598755 85.22880035 1.92252197 85.83406555 2.55773926 86.45767212 C4.81535586 88.87192699 4.99878448 89.98359042 5.25 93.375 C5 97 5 97 4.0625 99.375 C1.28699803 101.56175913 -0.87529084 102.12519909 -4.37789917 102.44113159 C-10.25407237 101.45254808 -14.16633648 96.20831417 -18.16015625 92.09765625 C-19.19944035 91.060031 -20.24035705 90.02403863 -21.28282166 88.98960876 C-23.45807558 86.82006087 -25.61480062 84.6340519 -27.75952148 82.43432617 C-30.50335711 79.62231692 -33.28545628 76.85226614 -36.08219242 74.09298038 C-38.23596946 71.96039023 -40.36974515 69.80865154 -42.49789238 67.65051079 C-43.51652795 66.62154439 -44.5408193 65.5981441 -45.57087898 64.58061409 C-54.57009427 55.64993892 -54.57009427 55.64993892 -55.06030273 50.80639648 C-53.58843014 45.52249926 -50.86582847 42.77472314 -47 39 C-46.31126801 38.2898172 -45.62253601 37.5796344 -44.91293335 36.84793091 C-42.65523662 34.52305882 -40.36868007 32.22997949 -38.07421875 29.94140625 C-37.24541702 29.1116478 -36.4166153 28.28188934 -35.56269836 27.42698669 C-33.82517205 25.68878427 -32.08639989 23.95182638 -30.34643555 22.21606445 C-27.67445182 19.54947818 -25.00789944 16.87754312 -22.34179688 14.20507812 C-20.64875841 12.51269974 -18.95541015 10.82063119 -17.26171875 9.12890625 C-16.46279709 8.32796036 -15.66387543 7.52701447 -14.84074402 6.70179749 C-14.10270035 5.96690598 -13.36465668 5.23201447 -12.60424805 4.47485352 C-11.62998116 3.50178001 -11.62998116 3.50178001 -10.6360321 2.50904846 C-7.29779072 -0.57008918 -4.43298607 -0.45081214 0 0 Z " fill="#4583C3" transform="translate(174,171)"/>
<path d="M0 0 C10.69290708 2.51597814 21.29192873 17.47736309 28.88085938 24.98339844 C30.75923113 26.83497365 32.64472936 28.67934571 34.53710938 30.51660156 C37.28125514 33.18193622 40.00198866 35.86929257 42.71875 38.5625 C43.56860474 39.37936279 44.41845947 40.19622559 45.29406738 41.0378418 C48.65341439 44.40888776 50.8978579 46.67920194 52.15429688 51.32421875 C50.73643386 56.34832327 47.83825521 59.12431571 44.1875 62.75 C43.48595795 63.47428192 42.78441589 64.19856384 42.06161499 64.9447937 C39.74269024 67.32698129 37.39666551 69.6795241 35.04296875 72.02734375 C34.19197098 72.87929825 33.34097321 73.73125275 32.46418762 74.60902405 C30.67958294 76.394305 28.89373176 78.17834072 27.10668945 79.96118164 C24.36227838 82.70019661 21.62329568 85.44455952 18.88476562 88.18945312 C17.14615423 89.92740442 15.40723305 91.66504586 13.66796875 93.40234375 C12.84717331 94.22516342 12.02637787 95.04798309 11.18070984 95.89573669 C10.42264542 96.65064896 9.66458099 97.40556122 8.88354492 98.18334961 C8.21626877 98.84983017 7.54899261 99.51631073 6.86149597 100.20298767 C4.62279328 102.27186999 3.42744361 102.71800752 0.375 103.125 C-2.8125 102.75 -2.8125 102.75 -5.6875 100.6875 C-7.8125 97.75 -7.8125 97.75 -8.5625 94.4375 C-7.7861432 90.62041242 -7.22719181 89.73934085 -4.71850586 86.97851562 C-4.08339081 86.27855469 -3.44827576 85.57859375 -2.79391479 84.85742188 C0.22446803 81.64708651 3.3048806 78.50892124 6.43359375 75.40625 C7.08957047 74.75168823 7.74554718 74.09712646 8.42140198 73.42272949 C10.48690145 71.36276177 12.55587595 69.30632634 14.625 67.25 C16.03864434 65.8413795 17.45205786 64.43252733 18.86523438 63.0234375 C22.30333149 59.59627867 25.74454656 56.17227981 29.1875 52.75 C27.81487236 49.66655459 26.25144769 47.57281099 23.85522461 45.20654297 C23.1778978 44.53259491 22.50057098 43.85864685 21.80271912 43.16427612 C21.07247025 42.44748688 20.34222137 41.73069763 19.58984375 40.9921875 C18.84037979 40.24792511 18.09091583 39.50366272 17.31874084 38.73684692 C14.92552366 36.36143574 12.52572632 33.99281991 10.125 31.625 C7.72158548 29.24917784 5.31963131 26.87192511 2.92054749 24.49172974 C1.4275398 23.01100567 -0.06813236 21.53296256 -1.56666565 20.05783081 C-2.2408403 19.39018707 -2.91501495 18.72254333 -3.60961914 18.03466797 C-4.20537247 17.44716766 -4.80112579 16.85966736 -5.41493225 16.25436401 C-7.58696369 13.91635505 -7.81939025 12.68913616 -8.1875 9.4375 C-7.8125 5.75 -7.8125 5.75 -5.6875 2.8125 C-2.8125 0.75 -2.8125 0.75 0 0 Z " fill="#4582C3" transform="translate(272.8125,170.25)"/>
<path d="M0 0 C0.89721268 -0.00860046 1.79442535 -0.01720093 2.71882629 -0.02606201 C3.70071426 -0.03032196 4.68260223 -0.03458191 5.69424438 -0.03897095 C6.73028305 -0.04714844 7.76632172 -0.05532593 8.83375549 -0.06375122 C12.26722636 -0.08859431 15.70065598 -0.10511646 19.13418579 -0.11953735 C20.30567799 -0.12486103 21.47717018 -0.13018471 22.68416214 -0.13566971 C28.88201493 -0.16239357 35.07984761 -0.18177299 41.27774048 -0.19619751 C47.68617079 -0.21286469 54.09408878 -0.25766262 60.50232506 -0.30856895 C65.42479054 -0.3421799 70.34713331 -0.35376809 75.26970291 -0.35942459 C77.6324519 -0.36615152 79.99519241 -0.38141067 82.35783005 -0.4053154 C85.66180335 -0.43684333 88.96437965 -0.43702204 92.26846313 -0.42959595 C93.24630264 -0.44600128 94.22414215 -0.46240662 95.23161316 -0.47930908 C99.83018353 -0.43693989 101.93891407 -0.34721253 105.71807861 2.47161865 C107.61074829 5.15390015 107.61074829 5.15390015 108.23574829 8.65390015 C107.42192696 13.21129959 106.3182808 14.39220008 102.61074829 17.15390015 C99.11453139 17.8925505 95.67942411 17.83717224 92.11660767 17.8008728 C91.06076981 17.8096344 90.00493195 17.818396 88.917099 17.8274231 C85.42914664 17.84941852 81.9424634 17.83486263 78.45449829 17.81796265 C76.0298132 17.82133071 73.60512975 17.82618324 71.18045044 17.8324585 C66.0995984 17.83983008 61.01918595 17.82911438 55.93838501 17.80575562 C49.42451741 17.77726857 42.91167984 17.79367089 36.39785004 17.82361794 C31.39124791 17.84168266 26.38489012 17.83593647 21.37828064 17.82297897 C18.97649514 17.81964272 16.57468748 17.82373966 14.17292786 17.83537674 C10.81631685 17.84807097 7.4613755 17.82872574 4.10488892 17.8008728 C3.11149002 17.81099396 2.11809113 17.82111511 1.09458923 17.83154297 C-3.55560148 17.76002869 -5.70350257 17.67093461 -9.50997925 14.80096436 C-11.38925171 12.15390015 -11.38925171 12.15390015 -11.95175171 9.15390015 C-11.26131314 5.47156111 -10.02111243 3.78576087 -7.38925171 1.15390015 C-4.59784163 0.22343012 -2.88644803 0.02062612 0 0 Z " fill="#90BAE1" transform="translate(105.38925170898438,289.8460998535156)"/>
<path d="M0 0 C4.21433071 0.59148501 5.84957652 1.2116079 8.5625 4.5 C9.11806391 10.79859653 7.88826396 15.34245631 5.52075195 21.1315918 C5.03536705 22.36487717 5.03536705 22.36487717 4.54017639 23.62307739 C3.47407834 26.32080171 2.38819406 29.01002273 1.30078125 31.69921875 C0.54963942 33.58119602 -0.2006579 35.46351056 -0.95014954 37.34614563 C-2.52094568 41.28265438 -4.10152124 45.21505023 -5.68920898 49.14477539 C-7.7205005 54.17460132 -9.72767371 59.21364049 -11.72769451 64.25596905 C-13.2719132 68.14170733 -14.82852278 72.0223873 -16.38892555 75.90165138 C-17.13382328 77.75764907 -17.87495135 79.6151644 -18.61218834 81.47421837 C-19.64523448 84.07358025 -20.69472716 86.6656897 -21.7487793 89.2565918 C-22.04872803 90.02085983 -22.34867676 90.78512787 -22.65771484 91.57255554 C-24.53971562 96.13705197 -26.53629203 99.292689 -30.4375 102.5 C-34.2367366 103.21235686 -35.87474821 102.81263988 -39.25 100.9375 C-42.15673286 97.6985691 -42.24422834 95.83512765 -42.4375 91.5 C-41.73747001 88.46078779 -40.5953169 85.65859724 -39.40161133 82.7824707 C-39.06680756 81.93931305 -38.73200378 81.0961554 -38.38705444 80.22744751 C-37.28058844 77.4534796 -36.15074269 74.68974046 -35.01953125 71.92578125 C-34.24183744 69.99526515 -33.46529878 68.06428333 -32.68986511 66.13285828 C-31.06319052 62.09141042 -29.42538528 58.05471895 -27.77905273 54.02124023 C-25.67033065 48.8534664 -23.58538294 43.67650889 -21.5081377 38.4960146 C-19.90754103 34.50967696 -18.29661616 30.52758029 -16.68231773 26.54677391 C-15.90976332 24.63928868 -15.13991806 22.73070388 -14.37284279 20.82100868 C-13.29881186 18.15286451 -12.21152585 15.49052052 -11.12036133 12.8293457 C-10.80589554 12.04120987 -10.49142975 11.25307404 -10.16743469 10.4410553 C-7.95346984 5.09845602 -6.19813479 0.90154688 0 0 Z " fill="#4583C3" transform="translate(238.4375,170.5)"/>
<path d="M0 0 C0.901241 -0.00700928 1.80248199 -0.01401855 2.73103333 -0.02124023 C5.70967432 -0.03884332 8.68736499 -0.02718919 11.66601562 -0.01367188 C13.73580101 -0.01636612 15.80558516 -0.02024798 17.87536621 -0.02526855 C22.2130946 -0.03116674 26.5504935 -0.02259016 30.88818359 -0.00390625 C36.45035782 0.01888329 42.01176005 0.00576195 47.57390594 -0.01819611 C51.84785791 -0.0326453 56.12162664 -0.02805209 60.39558411 -0.01768494 C62.44651887 -0.01501523 64.49747024 -0.01829596 66.54838562 -0.02760315 C69.41421624 -0.03775412 72.27879403 -0.02228788 75.14453125 0 C76.41796135 -0.01214539 76.41796135 -0.01214539 77.71711731 -0.02453613 C83.45114317 0.05814469 83.45114317 0.05814469 86.57165527 2.36633301 C88.53562313 5.18183821 89.00224785 7.08670727 89.07226562 10.51757812 C87.89903997 13.23452175 86.91377741 14.91893287 84.49302673 16.64103699 C80.88721341 17.94667747 77.3143686 17.80381864 73.52758789 17.79223633 C72.66696747 17.79734726 71.80634705 17.80245819 70.91964722 17.807724 C68.07591795 17.8216194 65.23243105 17.82066329 62.38867188 17.81835938 C60.41096405 17.82224628 58.43325706 17.82658093 56.45555115 17.8313446 C52.31042779 17.83880666 48.16538961 17.83851559 44.02026367 17.83325195 C38.70942399 17.82745676 33.398933 17.84438967 28.08815098 17.86759663 C24.00377872 17.88233102 19.91949049 17.88320607 15.83509636 17.8800869 C13.87708788 17.88060024 11.91907471 17.88584035 9.961092 17.89589882 C7.22261035 17.90824039 4.48480872 17.90148529 1.74633789 17.88989258 C0.93838272 17.89753632 0.13042755 17.90518005 -0.70201111 17.91305542 C-5.29210485 17.87012422 -8.27292131 17.3608957 -11.92773438 14.51757812 C-13.85637277 11.97528206 -13.93675728 10.73412795 -13.80273438 7.51757812 C-11.60326486 -0.0234602 -6.88140183 -0.06563162 0 0 Z " fill="#90BAE1" transform="translate(209.927734375,136.482421875)"/>
<path d="M0 0 C4.65834119 3.89548093 9.08608774 7.93698906 13.37109375 12.23828125 C13.93828629 12.80451706 14.50547882 13.37075287 15.08985901 13.95414734 C16.27329173 15.13690579 17.45548773 16.32090288 18.63647461 17.50610352 C20.45377236 19.32882089 22.27643025 21.14605809 24.09960938 22.96289062 C25.25292547 24.11686647 26.40593191 25.2711519 27.55859375 26.42578125 C28.10535263 26.9705159 28.65211151 27.51525055 29.21543884 28.07649231 C33 31.88501099 33 31.88501099 33 33 C32.3709375 33.14695312 31.741875 33.29390625 31.09375 33.4453125 C23.74890917 35.37001477 17.66781732 37.85891042 13.4296875 44.4375 C11.26753035 48.58884173 9.78362331 52.37249817 9 57 C6.14220983 55.70280076 4.08991464 54.3363174 1.88378906 52.11083984 C1.30348938 51.5303891 0.7231897 50.94993835 0.12530518 50.35189819 C-0.48838928 49.72788116 -1.10208374 49.10386414 -1.734375 48.4609375 C-2.37240051 47.82008209 -3.01042603 47.17922668 -3.66778564 46.51895142 C-5.69994069 44.47562179 -7.72502218 42.42544018 -9.75 40.375 C-11.1284453 38.9865214 -12.50734636 37.5984951 -13.88671875 36.2109375 C-17.26311894 32.81251303 -20.63319288 29.40792746 -24 26 C-22.3052459 22.3464177 -20.37898937 20.33134918 -17.3125 17.6875 C-11.02847838 12.16408042 -5.24740377 6.51950165 0 0 Z " fill="#7F8B8C" transform="translate(384,360)"/>
<path d="M0 0 C1.05618782 -0.00744736 1.05618782 -0.00744736 2.13371277 -0.01504517 C4.47424279 -0.02970598 6.81470495 -0.03647649 9.15527344 -0.04199219 C10.77854414 -0.04774198 12.40181481 -0.05349974 14.02508545 -0.05926514 C17.43485837 -0.06978734 20.84460764 -0.07562149 24.25439453 -0.07910156 C28.62031657 -0.08457811 32.98592544 -0.10858279 37.35174942 -0.13707352 C40.70781356 -0.15571691 44.06380269 -0.16090648 47.41991425 -0.16243744 C49.0290472 -0.16546246 50.63817888 -0.17348594 52.24726105 -0.18662262 C54.50232039 -0.20371335 56.75662058 -0.20179547 59.01171875 -0.1953125 C60.93579559 -0.20078094 60.93579559 -0.20078094 62.89874268 -0.20635986 C66.50985566 0.18790476 68.39290592 0.9789675 71.26464844 3.16113281 C72.82936076 6.29055746 72.96166802 9.77195505 72.26464844 13.16113281 C69.966009 16.23894473 68.77184315 17.08398567 64.92529297 17.66906738 C63.58288743 17.69275565 62.23998303 17.6944652 60.89746094 17.67871094 C60.16203064 17.68572021 59.42660034 17.69272949 58.66888428 17.69995117 C56.24208627 17.71753162 53.81645794 17.7059092 51.38964844 17.69238281 C49.70100684 17.69507774 48.01236676 17.69896016 46.32373047 17.70397949 C42.7863079 17.70987457 39.24928961 17.70131154 35.71191406 17.68261719 C31.17875998 17.65982729 26.64655316 17.67295037 22.11343384 17.69690704 C18.62696197 17.71136495 15.14071449 17.70675914 11.65423584 17.69639587 C9.98288867 17.69372855 8.31152109 17.69699857 6.64019775 17.70631409 C4.30352869 17.71648 1.96839099 17.7009803 -0.36816406 17.67871094 C-1.05815491 17.68680786 -1.74814575 17.69490479 -2.45904541 17.70324707 C-5.75157692 17.64514662 -7.47678225 17.35743296 -10.12939453 15.34362793 C-12.43258088 12.21359838 -12.80322847 10.03011651 -12.73535156 6.16113281 C-10.36035156 3.28613281 -10.36035156 3.28613281 -7.73535156 1.16113281 C-5.84070798 -0.73351077 -2.5160016 0.01342617 0 0 Z " fill="#90BAE1" transform="translate(191.7353515625,357.8388671875)"/>
<path d="M0 0 C0.70427124 -0.0049649 1.40854248 -0.00992981 2.13415527 -0.01504517 C4.46924815 -0.02967629 6.80427307 -0.03647087 9.1394043 -0.04199219 C10.76124575 -0.04774353 12.38308718 -0.05350127 14.00492859 -0.05926514 C17.40872515 -0.06977829 20.81249807 -0.07561867 24.21630859 -0.07910156 C28.57435485 -0.08458236 32.93208805 -0.1086 37.2900362 -0.13707352 C40.64180915 -0.15571469 43.99350697 -0.16090631 47.34532738 -0.16243744 C48.95166927 -0.16546193 50.55800991 -0.17348364 52.16430092 -0.18662262 C54.41446209 -0.20371202 56.66386243 -0.20179603 58.9140625 -0.1953125 C60.19376419 -0.19895813 61.47346588 -0.20260376 62.79194641 -0.20635986 C66.39904248 0.18825511 68.28191704 0.98191968 71.15112305 3.16113281 C72.71583537 6.29055746 72.84814263 9.77195505 72.15112305 13.16113281 C69.85248361 16.23894473 68.65831776 17.08398567 64.81176758 17.66906738 C63.46936204 17.69275565 62.12645764 17.6944652 60.78393555 17.67871094 C60.04850525 17.68572021 59.31307495 17.69272949 58.55535889 17.69995117 C56.12856088 17.71753162 53.70293255 17.7059092 51.27612305 17.69238281 C49.58748145 17.69507774 47.89884137 17.69896016 46.21020508 17.70397949 C42.67278251 17.70987457 39.13576421 17.70131154 35.59838867 17.68261719 C31.06523459 17.65982729 26.53302777 17.67295037 21.99990845 17.69690704 C18.51343658 17.71136495 15.0271891 17.70675914 11.54071045 17.69639587 C9.86936328 17.69372855 8.1979957 17.69699857 6.52667236 17.70631409 C4.1900033 17.71648 1.8548656 17.7009803 -0.48168945 17.67871094 C-1.1716803 17.68680786 -1.86167114 17.69490479 -2.5725708 17.70324707 C-5.86608135 17.64512935 -7.59193965 17.35587622 -10.24682617 15.34362793 C-12.52532343 12.23960077 -12.84887695 9.989232 -12.84887695 6.16113281 C-9.17381828 0.3317294 -6.62733213 0.03542701 0 0 Z " fill="#90BAE1" transform="translate(191.848876953125,67.8388671875)"/>
<path d="M0 0 C1.08632469 -0.0131424 1.08632469 -0.0131424 2.19459534 -0.02655029 C4.57891471 -0.04848486 6.96136626 -0.03401489 9.34570312 -0.01708984 C11.00810094 -0.02045974 12.67049635 -0.02531381 14.33288574 -0.03158569 C17.81314605 -0.03894889 21.29276374 -0.02827001 24.77294922 -0.00488281 C29.22881978 0.02360546 33.68318459 0.0071984 38.13899994 -0.02274513 C41.57065122 -0.04083354 45.00194688 -0.03505318 48.43360901 -0.02210617 C50.07621947 -0.01877638 51.71886248 -0.02284425 53.36143494 -0.03450394 C55.65979217 -0.0472392 57.95572887 -0.02780343 60.25390625 0 C61.56008911 0.00397797 62.86627197 0.00795593 64.21203613 0.01205444 C68.48930646 0.80730564 69.9754259 2.26336146 72.62695312 5.64697266 C73.37158553 9.61834546 72.9996219 11.08796949 70.75195312 14.45947266 C68.14369295 17.14444637 67.38954831 17.6092885 63.64872742 17.79414368 C62.37141251 17.80398788 61.0940976 17.81383209 59.77807617 17.82397461 C59.07380493 17.83054581 58.36953369 17.837117 57.6439209 17.84388733 C55.30883684 17.86362817 52.97381713 17.8752848 50.63867188 17.88525391 C49.44271865 17.8913672 49.44271865 17.8913672 48.22260475 17.89760399 C44.00232832 17.91846842 39.78208444 17.93276831 35.56176758 17.94213867 C31.20362795 17.953202 26.84599907 17.98759949 22.48803997 18.02731037 C19.13626662 18.05346249 15.7846152 18.06182925 12.43274879 18.06542015 C10.8263892 18.07029004 9.2200352 18.08191559 7.61377525 18.10045815 C5.36344383 18.12482026 3.11443673 18.12389069 0.86401367 18.11694336 C-1.05553886 18.12574272 -1.05553886 18.12574272 -3.01387024 18.13471985 C-6.94846599 17.5634227 -8.58083989 16.41991789 -11.37304688 13.64697266 C-12.81735542 10.75835556 -12.74993193 8.85049564 -12.37304688 5.64697266 C-8.60599421 0.79112651 -6.04767275 0.01841812 0 0 Z " fill="#90BAE1" transform="translate(106.373046875,136.35302734375)"/>
<path d="M0 0 C1.86936218 -0.00361794 1.86936218 -0.00361794 3.77648926 -0.00730896 C7.08268124 -0.00607986 10.38768042 0.01895467 13.69366455 0.0524292 C15.71711325 0.06639495 17.7397217 0.06282619 19.76318359 0.05249023 C23.65501228 0.03371783 27.54569195 0.04314286 31.4375 0.0625 C33.24547058 0.0550602 33.24547058 0.0550602 35.08996582 0.04747009 C43.3940107 0.16439862 43.3940107 0.16439862 47.45117188 2.44946289 C49.95912206 5.54179319 50.28814202 7.67356108 50.21875 11.62890625 C48.45233828 14.43080071 47.18825178 16.14415536 44.21875 17.62890625 C42.42785135 17.74007883 40.63288082 17.78812202 38.83862305 17.8059082 C37.15128304 17.82516106 37.15128304 17.82516106 35.42985535 17.84480286 C33.59865898 17.85588326 33.59865898 17.85588326 31.73046875 17.8671875 C29.8547393 17.87929512 29.8547393 17.87929512 27.94111633 17.89164734 C25.29054042 17.9054982 22.64008931 17.91651161 19.98950195 17.92407227 C16.59984251 17.93512837 13.21084108 17.96951845 9.82141399 18.00924397 C6.5828309 18.04172931 3.34418995 18.04619088 0.10546875 18.0546875 C-1.71661858 18.08094963 -1.71661858 18.08094963 -3.57551575 18.10774231 C-4.70986557 18.10481674 -5.84421539 18.10189117 -7.01293945 18.09887695 C-8.50613457 18.10767632 -8.50613457 18.10767632 -10.02949524 18.11665344 C-13.59370062 17.48489977 -15.26176187 16.1925467 -17.78125 13.62890625 C-18.54407267 8.82312345 -18.76280757 7.08872906 -16.03857422 3.03710938 C-11.75401152 -1.08169311 -5.54881342 -0.06103583 0 0 Z " fill="#90BAE1" transform="translate(248.78125,289.37109375)"/>
<path d="M0 0 C0.66914429 -0.00241196 1.33828857 -0.00482391 2.02770996 -0.00730896 C3.43633985 -0.00633354 4.84500951 0.00698777 6.25341797 0.03198242 C8.40074807 0.06631827 10.54396249 0.05262699 12.69140625 0.03320312 C14.06512155 0.04010214 15.43882631 0.04977506 16.8125 0.0625 C18.05322266 0.07337646 19.29394531 0.08425293 20.57226562 0.09545898 C24.46524219 0.71834664 26.12658929 1.88799427 28.90625 4.62890625 C30.35055855 7.51752334 30.28313506 9.42538326 29.90625 12.62890625 C27.22730033 16.10398146 25.74160584 17.47970464 21.37280273 18.26000977 C20.02873472 18.28602992 18.68391076 18.28388484 17.33984375 18.2578125 C16.6239357 18.26022446 15.90802765 18.26263641 15.17042542 18.26512146 C13.66344641 18.26414571 12.15643036 18.25081667 10.6496582 18.22583008 C8.34657943 18.19144849 6.04732664 18.20519705 3.74414062 18.22460938 C2.27602539 18.21771202 0.80792001 18.20804062 -0.66015625 18.1953125 C-1.6884127 18.2027523 -1.6884127 18.2027523 -2.73744202 18.21034241 C-6.03330663 18.12932591 -7.84218036 17.81418953 -10.52319336 15.83959961 C-12.41401007 13.17811269 -12.613503 10.95621451 -12.72265625 7.7265625 C-10.81354301 1.35889909 -6.03145169 -0.00352487 0 0 Z " fill="#90BAE1" transform="translate(132.09375,323.37109375)"/>
<path d="M0 0 C1.03253906 -0.01095703 2.06507813 -0.02191406 3.12890625 -0.03320312 C7.69599726 0.01099453 10.66516377 0.07275697 14.65625 2.4140625 C17.04966692 5.20300171 17.5 6.89631231 17.5 10.5625 C16.1260627 13.44122577 14.75010563 15.31239437 12.5 17.5625 C8.58371986 18.07293012 4.6332429 17.97929348 0.6875 18 C-0.40626953 18.03287109 -1.50003906 18.06574219 -2.62695312 18.09960938 C-10.67492078 18.15355675 -10.67492078 18.15355675 -14.72265625 15.25390625 C-17.08191075 11.68132086 -17.2503415 9.76441237 -16.5 5.5625 C-12.19064385 -0.79056368 -7.00338299 -0.16175104 0 0 Z " fill="#90BAE1" transform="translate(332.5,289.4375)"/>
<path d="M0 0 C1.14082031 -0.01095703 2.28164063 -0.02191406 3.45703125 -0.03320312 C11.84336792 0.04070701 11.84336792 0.04070701 14.79101562 2.38305664 C17.22594955 5.4882931 17.56882449 7.63950404 17.5 11.5625 C15.34567661 14.240848 13.57491161 16.02504419 10.5 17.5625 C7.0691548 17.85509649 3.62937345 17.84041989 0.1875 17.875 C-0.76318359 17.90400391 -1.71386719 17.93300781 -2.69335938 17.96289062 C-7.13741318 18.00326288 -9.74401499 18.0236984 -13.60546875 15.66796875 C-15.86953351 13.15182255 -16.43789558 12.12143979 -16.8125 8.75 C-15.83570672 -1.21329141 -8.03748684 -0.16801526 0 0 Z " fill="#90BAE1" transform="translate(332.5,136.4375)"/>
</svg>
